<svg width="111" height="32" viewBox="0 0 111 32" fill="none" xmlns="http://www.w3.org/2000/svg">
<path d="M0 2.66667C0 1.19391 1.19391 0 2.66667 0H12.8C16.3346 0 19.2 2.86538 19.2 6.4C19.2 9.93462 16.3346 12.8 12.8 12.8H0V2.66667Z" fill="#FC3E70"/>
<path d="M0 12.8H16C21.3019 12.8 25.6 17.0981 25.6 22.4C25.6 27.702 21.3019 32 16 32H2.66667C1.19391 32 0 30.8061 0 29.3334V12.8Z" fill="#705DF2"/>
<path d="M34.9921 22.3333V10.9733H38.9121C39.9041 10.9733 40.7148 11.2773 41.3441 11.8853C41.9841 12.4933 42.3041 13.2347 42.3041 14.1093C42.3041 15.048 41.9521 15.7787 41.2481 16.3013C42.4641 16.8027 43.0721 17.704 43.0721 19.0053C43.0721 19.9547 42.7254 20.7493 42.0321 21.3893C41.3494 22.0187 40.4748 22.3333 39.4081 22.3333H34.9921ZM36.8641 20.6213H39.3601C39.9574 20.6213 40.4214 20.472 40.7521 20.1733C41.0828 19.8747 41.2481 19.48 41.2481 18.9893C41.2481 18.5093 41.0828 18.12 40.7521 17.8213C40.4214 17.512 39.9574 17.3573 39.3601 17.3573H36.8641V20.6213ZM36.8641 15.7573H38.8161C39.3174 15.7573 39.7174 15.6133 40.0161 15.3253C40.3148 15.0373 40.4641 14.6693 40.4641 14.2213C40.4641 13.7947 40.3148 13.432 40.0161 13.1333C39.7174 12.8347 39.3174 12.6853 38.8161 12.6853H36.8641V15.7573ZM51.4698 21.2933C50.6698 22.0933 49.6778 22.4933 48.4938 22.4933C47.3098 22.4933 46.3125 22.0933 45.5018 21.2933C44.7018 20.4827 44.3018 19.496 44.3018 18.3333C44.3018 17.1707 44.7018 16.1893 45.5018 15.3893C46.3125 14.5787 47.3098 14.1733 48.4938 14.1733C49.6778 14.1733 50.6698 14.5787 51.4698 15.3893C52.2805 16.1893 52.6858 17.1707 52.6858 18.3333C52.6858 19.496 52.2805 20.4827 51.4698 21.2933ZM48.4938 20.8613C49.1872 20.8613 49.7578 20.6213 50.2058 20.1413C50.6645 19.6507 50.8938 19.048 50.8938 18.3333C50.8938 17.6187 50.6645 17.0213 50.2058 16.5413C49.7578 16.0507 49.1872 15.8053 48.4938 15.8053C47.7898 15.8053 47.2085 16.0507 46.7498 16.5413C46.3018 17.0213 46.0778 17.6187 46.0778 18.3333C46.0778 19.048 46.3018 19.6507 46.7498 20.1413C47.2085 20.6213 47.7898 20.8613 48.4938 20.8613ZM61.048 21.2933C60.248 22.0933 59.256 22.4933 58.072 22.4933C56.888 22.4933 55.8906 22.0933 55.08 21.2933C54.28 20.4827 53.88 19.496 53.88 18.3333C53.88 17.1707 54.28 16.1893 55.08 15.3893C55.8906 14.5787 56.888 14.1733 58.072 14.1733C59.256 14.1733 60.248 14.5787 61.048 15.3893C61.8586 16.1893 62.264 17.1707 62.264 18.3333C62.264 19.496 61.8586 20.4827 61.048 21.2933ZM58.072 20.8613C58.7653 20.8613 59.336 20.6213 59.784 20.1413C60.2426 19.6507 60.472 19.048 60.472 18.3333C60.472 17.6187 60.2426 17.0213 59.784 16.5413C59.336 16.0507 58.7653 15.8053 58.072 15.8053C57.368 15.8053 56.7866 16.0507 56.328 16.5413C55.88 17.0213 55.656 17.6187 55.656 18.3333C55.656 19.048 55.88 19.6507 56.328 20.1413C56.7866 20.6213 57.368 20.8613 58.072 20.8613ZM69.6181 22.3333L65.7941 18.4773V22.3333H64.0341V10.3333H65.7941V17.3733L68.8501 14.3333H71.0741L67.5061 17.9013L71.8741 22.3333H69.6181ZM72.7841 22.3333V14.3333H74.5441V15.4213C75.0454 14.5893 75.8561 14.1733 76.9761 14.1733C77.9041 14.1733 78.6454 14.4773 79.2001 15.0853C79.7548 15.6933 80.0321 16.504 80.0321 17.5173V22.3333H78.2721V17.8053C78.2721 17.1653 78.1228 16.6693 77.8241 16.3173C77.5254 15.9547 77.1201 15.7733 76.6081 15.7733C76.0001 15.7733 75.5041 16.0027 75.1201 16.4613C74.7361 16.92 74.5441 17.5653 74.5441 18.3973V22.3333H72.7841ZM85.8201 22.4933C84.6254 22.4933 83.6441 22.104 82.8761 21.3253C82.1081 20.536 81.7241 19.5387 81.7241 18.3333C81.7241 17.128 82.1028 16.136 82.8601 15.3573C83.6174 14.568 84.6094 14.1733 85.8361 14.1733C87.0734 14.1733 88.0708 14.6053 88.8281 15.4693C89.5854 16.3227 89.9214 17.4213 89.8361 18.7653H83.4681C83.4894 19.384 83.7241 19.9013 84.1721 20.3173C84.6201 20.7333 85.1908 20.9413 85.8841 20.9413C86.8654 20.9413 87.5374 20.568 87.9001 19.8213H89.7401C89.4948 20.6 89.0254 21.24 88.3321 21.7413C87.6388 22.2427 86.8014 22.4933 85.8201 22.4933ZM85.7881 15.6453C85.2121 15.6453 84.7161 15.8107 84.3001 16.1413C83.8948 16.4613 83.6334 16.92 83.5161 17.5173H87.9481C87.8201 16.8987 87.5588 16.4347 87.1641 16.1253C86.7694 15.8053 86.3108 15.6453 85.7881 15.6453ZM94.9748 22.4133C94.1642 22.4133 93.5028 22.1893 92.9908 21.7413C92.4895 21.2827 92.2388 20.6213 92.2388 19.7573V15.9013H90.5748V14.3333H92.2388V12.1093H93.9988V14.3333H96.2868V15.9013H93.9988V19.4693C93.9988 19.96 94.1055 20.312 94.3188 20.5253C94.5322 20.728 94.8735 20.8293 95.3428 20.8293C95.7268 20.8293 96.0415 20.776 96.2868 20.6693V22.2373C95.9028 22.3547 95.4655 22.4133 94.9748 22.4133ZM98.836 12.5893C98.516 12.5893 98.2386 12.4773 98.004 12.2533C97.7693 12.0187 97.652 11.736 97.652 11.4053C97.652 11.0853 97.7693 10.8133 98.004 10.5893C98.2386 10.3547 98.516 10.2373 98.836 10.2373C99.1666 10.2373 99.444 10.3547 99.668 10.5893C99.892 10.8133 100.004 11.0853 100.004 11.4053C100.004 11.736 99.892 12.0187 99.668 12.2533C99.444 12.4773 99.1666 12.5893 98.836 12.5893ZM97.956 22.3333V14.3333H99.716V22.3333H97.956ZM105.697 22.4933C104.492 22.4933 103.489 22.0933 102.689 21.2933C101.9 20.4827 101.505 19.496 101.505 18.3333C101.505 17.1707 101.9 16.1893 102.689 15.3893C103.489 14.5787 104.492 14.1733 105.697 14.1733C106.732 14.1733 107.612 14.4613 108.337 15.0373C109.073 15.6133 109.548 16.3547 109.761 17.2613H107.905C107.745 16.8133 107.468 16.456 107.073 16.1893C106.689 15.912 106.23 15.7733 105.697 15.7733C104.993 15.7733 104.417 16.0133 103.969 16.4933C103.521 16.9733 103.297 17.5867 103.297 18.3333C103.297 19.08 103.521 19.6933 103.969 20.1733C104.417 20.6533 104.993 20.8933 105.697 20.8933C106.23 20.8933 106.689 20.76 107.073 20.4933C107.468 20.216 107.745 19.8533 107.905 19.4053H109.761C109.548 20.312 109.073 21.0533 108.337 21.6293C107.612 22.2053 106.732 22.4933 105.697 22.4933Z" fill="#2E3A59"/>
</svg>
