<svg width="24" height="24" viewBox="0 0 24 24" fill="none" xmlns="http://www.w3.org/2000/svg">
<path d="M12.375 21.75C17.5527 21.75 21.75 17.5527 21.75 12.375C21.75 7.19733 17.5527 3 12.375 3C7.19733 3 3 7.19733 3 12.375C3 17.5527 7.19733 21.75 12.375 21.75Z" stroke="#E4E9F2" stroke-width="1.5" stroke-linecap="round" stroke-linejoin="round"/>
<path d="M14.9792 9.24968C14.453 8.71929 13.804 8.37371 13.1102 8.25439C12.4164 8.13508 11.7072 8.2471 11.0677 8.57702C10.4282 8.90694 9.88557 9.44073 9.50495 10.1144C9.12433 10.788 8.92188 11.5728 8.92188 12.3747C8.92188 13.1765 9.12433 13.9614 9.50495 14.635C9.88557 15.3086 10.4282 15.8424 11.0677 16.1723C11.7072 16.5022 12.4164 16.6143 13.1102 16.495C13.804 16.3756 14.453 16.0301 14.9792 15.4997" stroke="#E4E9F2" stroke-width="1.5" stroke-linecap="round" stroke-linejoin="round"/>
</svg>
